<svg class="diagram-root" style="background: #f5f6f6" xmlns="http://www.w3.org/2000/svg" xmlns:xlink="http://www.w3.org/1999/xlink"><style>.diagram-root { font-family: "Helvetica Neue", sans-serif; font-size: 12px; } .t { overflow: visible; } .t-bg { y: 40; fill: #fff;   } .th { fill: #005aa0;   } .tht { fill: #fff; font-size: 14px;  } .tf { fill: #323c46; overflow: visible; } .tf.pk { fill: #005aa0; font-weight: bold; } .tf.fk { font-weight: bold; } .ty { fill: #adb1b5; font-weight: normal; text-anchor: end; } .r { fill: transparent; stroke: #c3c3c3; stroke-width: 1; } .l { stroke: 1; } .i { fill: #c2c7ce; stroke: #c2c7ce; } .i.ix { fill: #afb3b6; stroke: #000; } .fa { fill: transparent; overflow: visible; } .fa .bg.hover { fill: #f7f7f7; } .c { cy: 12; r: 4; stroke: #d2d2dc; fill: #d2d2dc; } .hr { fill: transparent; stroke: #323c46; stroke-opacity: 0.035; stroke-width: 13; } .dc { stroke: #fa5a3c; fill: #fa5a3c; } .x { stroke: white; stroke-width: 1; } .hl .th { fill: #1b9bff; } .hl .tht {  } .fhl .bg { fill: #e7f4ff; } .fhls .bg {  } .r.hl { stroke: #1b9bff; } .dim { opacity: 0.25; }</style><g class="drawing-wrapper" transform="translate(46.5, -11.333333333333321) scale(1,1)"><g class="rs"><path d="M 340.8333333333335 254.66666666666666 m -1, 0 a 1,1 0 1,0 2,0 a 1,1 0 1,0 -2,0 M 340.8333333333335 254.66666666666666 m -0.5, 0 a 0.5,0.5 0 1,0 1,0 a 0.5,0.5 0 1,0 -1,0  M340.8333333333335 254.66666666666666 L340.8333333333335 254.66666666666666 328.8333333333335 254.66666666666666 M 340.8333333333335 260.66666666666663 m -1, 0 a 1,1 0 1,0 2,0 a 1,1 0 1,0 -2,0 M 340.8333333333335 260.66666666666663 m -0.5, 0 a 0.5,0.5 0 1,0 1,0 a 0.5,0.5 0 1,0 -1,0  M340.8333333333335 260.66666666666663 L340.8333333333335 260.66666666666663 333.8333333333335 254.66666666666666 340.8333333333335 248.66666666666666 M 340.8333333333335 248.66666666666666 m -1, 0 a 1,1 0 1,0 2,0 a 1,1 0 1,0 -2,0 M 340.8333333333335 248.66666666666666 m -0.5, 0 a 0.5,0.5 0 1,0 1,0 a 0.5,0.5 0 1,0 -1,0  M328.8333333333335 254.66666666666666 C 161.7666666666663 254.66666666666666, 205.66666666666652 98.5, 255.66666666666652 98.5 M 267.6666666666665 98.5 m -1, 0 a 1,1 0 1,0 2,0 a 1,1 0 1,0 -2,0 M 267.6666666666665 98.5 m -0.5, 0 a 0.5,0.5 0 1,0 1,0 a 0.5,0.5 0 1,0 -1,0  M267.6666666666665 98.5 L267.6666666666665 98.5 255.66666666666652 98.5 M261.6666666666665 104.5 L261.6666666666665 104.5 261.6666666666665 92.5" id="h204939704" class="r"></path><path d="M 134.49 361.49999999999983 m -1, 0 a 1,1 0 1,0 2,0 a 1,1 0 1,0 -2,0 M 134.49 361.49999999999983 m -0.5, 0 a 0.5,0.5 0 1,0 1,0 a 0.5,0.5 0 1,0 -1,0  M134.49 361.49999999999983 L134.49 361.49999999999983 146.49 361.49999999999983 M 134.49 367.49999999999983 m -1, 0 a 1,1 0 1,0 2,0 a 1,1 0 1,0 -2,0 M 134.49 367.49999999999983 m -0.5, 0 a 0.5,0.5 0 1,0 1,0 a 0.5,0.5 0 1,0 -1,0  M134.49 367.49999999999983 L134.49 367.49999999999983 141.49 361.49999999999983 134.49 355.49999999999983 M 134.49 355.49999999999983 m -1, 0 a 1,1 0 1,0 2,0 a 1,1 0 1,0 -2,0 M 134.49 355.49999999999983 m -0.5, 0 a 0.5,0.5 0 1,0 1,0 a 0.5,0.5 0 1,0 -1,0  M146.49 361.49999999999983 Q 192.08 361.49999999999983, 237.66 295.58 T 328.8333333333335 229.66666666666666 M 340.8333333333335 229.66666666666666 m -1, 0 a 1,1 0 1,0 2,0 a 1,1 0 1,0 -2,0 M 340.8333333333335 229.66666666666666 m -0.5, 0 a 0.5,0.5 0 1,0 1,0 a 0.5,0.5 0 1,0 -1,0  M340.8333333333335 229.66666666666666 L340.8333333333335 229.66666666666666 328.8333333333335 229.66666666666666 M334.8333333333335 235.66666666666666 L334.8333333333335 235.66666666666666 334.8333333333335 223.66666666666666" id="h1139284389" class="r"></path><path d="M 134.49 386.49999999999983 m -1, 0 a 1,1 0 1,0 2,0 a 1,1 0 1,0 -2,0 M 134.49 386.49999999999983 m -0.5, 0 a 0.5,0.5 0 1,0 1,0 a 0.5,0.5 0 1,0 -1,0  M134.49 386.49999999999983 L134.49 386.49999999999983 146.49 386.49999999999983 M 134.49 392.49999999999983 m -1, 0 a 1,1 0 1,0 2,0 a 1,1 0 1,0 -2,0 M 134.49 392.49999999999983 m -0.5, 0 a 0.5,0.5 0 1,0 1,0 a 0.5,0.5 0 1,0 -1,0  M134.49 392.49999999999983 L134.49 392.49999999999983 141.49 386.49999999999983 134.49 380.49999999999983 M 134.49 380.49999999999983 m -1, 0 a 1,1 0 1,0 2,0 a 1,1 0 1,0 -2,0 M 134.49 380.49999999999983 m -0.5, 0 a 0.5,0.5 0 1,0 1,0 a 0.5,0.5 0 1,0 -1,0  M146.49 386.49999999999983 C 209.56199999999998 386.49999999999983, 204.66 227.33333333333334, 154.66 227.33333333333334 M 142.66 227.33333333333334 m -1, 0 a 1,1 0 1,0 2,0 a 1,1 0 1,0 -2,0 M 142.66 227.33333333333334 m -0.5, 0 a 0.5,0.5 0 1,0 1,0 a 0.5,0.5 0 1,0 -1,0  M142.66 227.33333333333334 L142.66 227.33333333333334 154.66 227.33333333333334 M148.66 233.33333333333334 L148.66 233.33333333333334 148.66 221.33333333333334" id="h1607168654" class="r"></path><path d="M 133.66 101.66666666666666 m -1, 0 a 1,1 0 1,0 2,0 a 1,1 0 1,0 -2,0 M 133.66 101.66666666666666 m -0.5, 0 a 0.5,0.5 0 1,0 1,0 a 0.5,0.5 0 1,0 -1,0  M133.66 101.66666666666666 L133.66 101.66666666666666 145.66 101.66666666666666 M 133.66 107.66666666666666 m -1, 0 a 1,1 0 1,0 2,0 a 1,1 0 1,0 -2,0 M 133.66 107.66666666666666 m -0.5, 0 a 0.5,0.5 0 1,0 1,0 a 0.5,0.5 0 1,0 -1,0  M133.66 107.66666666666666 L133.66 107.66666666666666 140.66 101.66666666666666 133.66 95.66666666666666 M 133.66 95.66666666666666 m -1, 0 a 1,1 0 1,0 2,0 a 1,1 0 1,0 -2,0 M 133.66 95.66666666666666 m -0.5, 0 a 0.5,0.5 0 1,0 1,0 a 0.5,0.5 0 1,0 -1,0  M145.66 101.66666666666666 C 202.0561785445495 101.66666666666666, 196.6561785445495 227.33333333333334, 154.66 227.33333333333334 M 142.66 227.33333333333334 m -1, 0 a 1,1 0 1,0 2,0 a 1,1 0 1,0 -2,0 M 142.66 227.33333333333334 m -0.5, 0 a 0.5,0.5 0 1,0 1,0 a 0.5,0.5 0 1,0 -1,0  M142.66 227.33333333333334 L142.66 227.33333333333334 154.66 227.33333333333334 M148.66 233.33333333333334 L148.66 233.33333333333334 148.66 221.33333333333334" id="h1397587031" class="r"></path><path d="M 133.66 126.66666666666666 m -1, 0 a 1,1 0 1,0 2,0 a 1,1 0 1,0 -2,0 M 133.66 126.66666666666666 m -0.5, 0 a 0.5,0.5 0 1,0 1,0 a 0.5,0.5 0 1,0 -1,0  M133.66 126.66666666666666 L133.66 126.66666666666666 145.66 126.66666666666666 M 133.66 132.66666666666666 m -1, 0 a 1,1 0 1,0 2,0 a 1,1 0 1,0 -2,0 M 133.66 132.66666666666666 m -0.5, 0 a 0.5,0.5 0 1,0 1,0 a 0.5,0.5 0 1,0 -1,0  M133.66 132.66666666666666 L133.66 132.66666666666666 140.66 126.66666666666666 133.66 120.66666666666666 M 133.66 120.66666666666666 m -1, 0 a 1,1 0 1,0 2,0 a 1,1 0 1,0 -2,0 M 133.66 120.66666666666666 m -0.5, 0 a 0.5,0.5 0 1,0 1,0 a 0.5,0.5 0 1,0 -1,0  M145.66 126.66666666666666 Q 191.46 126.66666666666666, 237.25 178.17 T 328.8333333333335 229.66666666666666 M 340.8333333333335 229.66666666666666 m -1, 0 a 1,1 0 1,0 2,0 a 1,1 0 1,0 -2,0 M 340.8333333333335 229.66666666666666 m -0.5, 0 a 0.5,0.5 0 1,0 1,0 a 0.5,0.5 0 1,0 -1,0  M340.8333333333335 229.66666666666666 L340.8333333333335 229.66666666666666 328.8333333333335 229.66666666666666 M334.8333333333335 235.66666666666666 L334.8333333333335 235.66666666666666 334.8333333333335 223.66666666666666" id="h2286254435" class="r"></path><path d="M 556.87 98.33333333333331 m -1, 0 a 1,1 0 1,0 2,0 a 1,1 0 1,0 -2,0 M 556.87 98.33333333333331 m -0.5, 0 a 0.5,0.5 0 1,0 1,0 a 0.5,0.5 0 1,0 -1,0  M556.87 98.33333333333331 L556.87 98.33333333333331 568.87 98.33333333333331 M 556.87 104.33333333333331 m -1, 0 a 1,1 0 1,0 2,0 a 1,1 0 1,0 -2,0 M 556.87 104.33333333333331 m -0.5, 0 a 0.5,0.5 0 1,0 1,0 a 0.5,0.5 0 1,0 -1,0  M556.87 104.33333333333331 L556.87 104.33333333333331 563.87 98.33333333333331 556.87 92.33333333333331 M 556.87 92.33333333333331 m -1, 0 a 1,1 0 1,0 2,0 a 1,1 0 1,0 -2,0 M 556.87 92.33333333333331 m -0.5, 0 a 0.5,0.5 0 1,0 1,0 a 0.5,0.5 0 1,0 -1,0  M568.87 98.33333333333331 C 616.4914906487076 98.33333333333331, 650.2294906487076 229.66666666666666, 512.64 229.66666666666666 M 500.64 229.66666666666666 m -1, 0 a 1,1 0 1,0 2,0 a 1,1 0 1,0 -2,0 M 500.64 229.66666666666666 m -0.5, 0 a 0.5,0.5 0 1,0 1,0 a 0.5,0.5 0 1,0 -1,0  M500.64 229.66666666666666 L500.64 229.66666666666666 512.64 229.66666666666666 M506.64 235.66666666666666 L506.64 235.66666666666666 506.64 223.66666666666666" id="h3177548053" class="r"></path></g><g class="hrs"></g><g class="ts"><svg width="147.16" height="100" x="-13.500000000000002" y="44.66666666666666" id="h1676682957" class="t"><rect height="40" width="147.16" class="th"></rect><text x="13" y="25" class="tht">dept_manager</text><rect height="60" width="147.16" class="t-bg"></rect><text x="13" y="61" class="tf fk">dept_no<tspan x="134.16" class="ty">VARCHAR</tspan></text><text x="13" y="86" class="tf fk">emp_no<tspan x="134.16" class="ty">INT</tspan></text></svg><svg width="167.16" height="100" x="-24.499999999999996" y="170.33333333333334" id="h475896179" class="t"><rect height="40" width="167.16" class="th"></rect><text x="13" y="25" class="tht">departments</text><rect height="60" width="167.16" class="t-bg"></rect><text x="13" y="61" class="tf pk">dept_no<tspan x="154.16" class="ty">VARCHAR</tspan></text><path d="M7,14A2,2 0 0,1 5,12A2,2 0 0,1 7,10A2,2 0 0,1 9,12A2,2 0 0,1 7,14M12.65,10C11.83,7.67 9.61,6 7, 6A6, 6 0 0, 0 1, 12A6, 6 0 0, 0 7, 18C9.61, 18 11.83, 16.33 12.65, 14H17V18H21V14H23V10H12.65Z" class="i pk" transform="translate(76.37484375, 48) scale(0.65)"></path><text x="13" y="86" class="tf">dept_name<tspan x="154.16" class="ty">VARCHAR</tspan></text></svg><svg width="158.47" height="100" x="267.6666666666665" y="41.49999999999999" id="h311790747" class="t"><rect height="40" width="158.47" class="th"></rect><text x="13" y="25" class="tht">titles</text><rect height="60" width="158.47" class="t-bg"></rect><text x="13" y="61" class="tf pk">title_id<tspan x="145.47" class="ty">VARCHAR</tspan></text><path d="M7,14A2,2 0 0,1 5,12A2,2 0 0,1 7,10A2,2 0 0,1 9,12A2,2 0 0,1 7,14M12.65,10C11.83,7.67 9.61,6 7, 6A6, 6 0 0, 0 1, 12A6, 6 0 0, 0 7, 18C9.61, 18 11.83, 16.33 12.65, 14H17V18H21V14H23V10H12.65Z" class="i pk" transform="translate(67.68484375, 48) scale(0.65)"></path><text x="13" y="86" class="tf">title<tspan x="145.47" class="ty">VARCHAR</tspan></text></svg><svg width="108.7" height="100" x="448.16666666666663" y="41.33333333333332" id="h2472833127" class="t"><rect height="40" width="108.7" class="th"></rect><text x="13" y="25" class="tht">salaries</text><rect height="60" width="108.7" class="t-bg"></rect><text x="13" y="61" class="tf fk">emp_no<tspan x="95.7" class="ty">INT</tspan></text><text x="13" y="86" class="tf">salary<tspan x="95.7" class="ty">INT</tspan></text></svg><svg width="159.81" height="225" x="340.8333333333335" y="172.66666666666666" id="h1639608377" class="t"><rect height="40" width="159.81" class="th"></rect><text x="13" y="25" class="tht">employees</text><rect height="185" width="159.81" class="t-bg"></rect><text x="13" y="61" class="tf pk">emp_no<tspan x="146.81" class="ty">INT</tspan></text><path d="M7,14A2,2 0 0,1 5,12A2,2 0 0,1 7,10A2,2 0 0,1 9,12A2,2 0 0,1 7,14M12.65,10C11.83,7.67 9.61,6 7, 6A6, 6 0 0, 0 1, 12A6, 6 0 0, 0 7, 18C9.61, 18 11.83, 16.33 12.65, 14H17V18H21V14H23V10H12.65Z" class="i pk" transform="translate(107.479921875, 48) scale(0.65)"></path><text x="13" y="86" class="tf fk">emp_title<tspan x="146.81" class="ty">VARCHAR</tspan></text><text x="13" y="111" class="tf">birth_date<tspan x="146.81" class="ty">VARCHAR</tspan></text><text x="13" y="136" class="tf">first_name<tspan x="146.81" class="ty">VARCHAR</tspan></text><text x="13" y="161" class="tf">last_name<tspan x="146.81" class="ty">VARCHAR</tspan></text><text x="13" y="186" class="tf">sex<tspan x="146.81" class="ty">VARCHAR</tspan></text><text x="13" y="211" class="tf">hire_date<tspan x="146.81" class="ty">VARCHAR</tspan></text></svg><svg width="147.16" height="100" x="-12.666666666666657" y="304.49999999999983" id="h1090417462" class="t"><rect height="40" width="147.16" class="th"></rect><text x="13" y="25" class="tht">dept_emp</text><rect height="60" width="147.16" class="t-bg"></rect><text x="13" y="61" class="tf fk">emp_no<tspan x="134.16" class="ty">INT</tspan></text><text x="13" y="86" class="tf fk">dept_no<tspan x="134.16" class="ty">VARCHAR</tspan></text></svg></g></g><text class="qdbd-link" x="10" y="20">www.quickdatabasediagrams.com</text></svg>